<?xml version="1.0" standalone="no"?>
<!DOCTYPE svg PUBLIC "-//W3C//DTD SVG 20010904//EN"
 "http://www.w3.org/TR/2001/REC-SVG-20010904/DTD/svg10.dtd">
<svg version="1.0" xmlns="http://www.w3.org/2000/svg"
 width="256.000000pt" height="256.000000pt" viewBox="0 0 256.000000 256.000000"
 preserveAspectRatio="xMidYMid meet">
<metadata>
Created by potrace 1.11, written by Peter Selinger 2001-2013
</metadata>
<g transform="translate(0.000000,256.000000) scale(0.100000,-0.100000)"
fill="#000000" stroke="none">
<path d="M1125 2274 c-16 -2 -66 -9 -110 -15 -291 -38 -568 -164 -744 -339
-136 -134 -199 -262 -208 -422 l-6 -88 27 0 c26 0 26 -1 26 -70 0 -40 -4 -70
-10 -70 -5 0 -10 -20 -10 -45 0 -36 3 -45 17 -45 12 0 6 -9 -20 -31 -58 -48
-81 -101 -81 -184 0 -53 5 -80 22 -112 26 -50 80 -96 131 -112 54 -16 2188
-16 2242 0 51 16 105 62 131 112 17 32 22 60 23 112 0 84 -27 142 -90 190
l-40 30 3 112 3 112 27 3 c24 3 27 8 30 44 8 109 -62 295 -153 404 -158 192
-442 338 -765 394 -91 16 -382 29 -445 20z"/>
<path d="M62 642 c-2 -7 -2 -40 1 -72 10 -111 75 -212 170 -262 l42 -23 979
-3 c1102 -3 1035 -7 1124 73 31 28 58 65 75 102 26 59 44 170 30 188 -5 7
-268 9 -763 7 l-755 -3 -103 -89 c-97 -84 -105 -89 -125 -76 -12 7 -78 47
-147 87 l-125 74 -199 5 c-159 4 -200 2 -204 -8z"/>
</g>
</svg>
